{
	"asset":{
		"generator":"Khronos glTF Blender I/O v4.2.57",
		"version":"2.0"
	},
	"extensionsUsed":[
		"KHR_materials_emissive_strength"
	],
	"scene":0,
	"scenes":[
		{
			"name":"Scene",
			"nodes":[
				0
			]
		}
	],
	"nodes":[
		{
			"mesh":0,
			"name":"RoomWalls"
		}
	],
	"materials":[
		{
			"doubleSided":true,
			"name":"Mat_Kitchen",
			"pbrMetallicRoughness":{
				"baseColorTexture":{
					"index":0
				},
				"metallicFactor":0,
				"roughnessFactor":0.3818182051181793
			}
		},
		{
			"doubleSided":true,
			"name":"Mat_KitchenMetal",
			"pbrMetallicRoughness":{
				"baseColorTexture":{
					"index":1
				},
				"roughnessFactor":0.2863636612892151
			}
		},
		{
			"doubleSided":true,
			"emissiveFactor":[
				1,
				1,
				1
			],
			"extensions":{
				"KHR_materials_emissive_strength":{
					"emissiveStrength":16.899999618530273
				}
			},
			"name":"Mat_Light",
			"pbrMetallicRoughness":{
				"baseColorTexture":{
					"index":2
				},
				"metallicFactor":0,
				"roughnessFactor":0.5
			}
		}
	],
	"meshes":[
		{
			"name":"Plane.004",
			"primitives":[
				{
					"attributes":{
						"POSITION":0,
						"NORMAL":1,
						"TEXCOORD_0":2
					},
					"indices":3,
					"material":0
				},
				{
					"attributes":{
						"POSITION":4,
						"NORMAL":5,
						"TEXCOORD_0":6
					},
					"indices":7,
					"material":1
				},
				{
					"attributes":{
						"POSITION":8,
						"NORMAL":9,
						"TEXCOORD_0":10
					},
					"indices":11,
					"material":2
				}
			]
		}
	],
	"textures":[
		{
			"sampler":0,
			"source":0
		},
		{
			"sampler":0,
			"source":0
		},
		{
			"sampler":0,
			"source":0
		}
	],
	"images":[
		{
			"mimeType":"image/jpeg",
			"name":"KitchenPallette",
			"uri":"KitchenPallette.jpg"
		}
	],
	"accessors":[
		{
			"bufferView":0,
			"componentType":5126,
			"count":10271,
			"max":[
				182.94192504882812,
				134.28982543945312,
				179.69485473632812
			],
			"min":[
				-301.9025573730469,
				-26.36151885986328,
				-179.60479736328125
			],
			"type":"VEC3"
		},
		{
			"bufferView":1,
			"componentType":5126,
			"count":10271,
			"type":"VEC3"
		},
		{
			"bufferView":2,
			"componentType":5126,
			"count":10271,
			"type":"VEC2"
		},
		{
			"bufferView":3,
			"componentType":5123,
			"count":16902,
			"type":"SCALAR"
		},
		{
			"bufferView":4,
			"componentType":5126,
			"count":13825,
			"max":[
				177.0729217529297,
				97.29011535644531,
				178.69464111328125
			],
			"min":[
				-93.63739776611328,
				-0.051907796412706375,
				-176.5546417236328
			],
			"type":"VEC3"
		},
		{
			"bufferView":5,
			"componentType":5126,
			"count":13825,
			"type":"VEC3"
		},
		{
			"bufferView":6,
			"componentType":5126,
			"count":13825,
			"type":"VEC2"
		},
		{
			"bufferView":7,
			"componentType":5123,
			"count":23706,
			"type":"SCALAR"
		},
		{
			"bufferView":8,
			"componentType":5126,
			"count":432,
			"max":[
				107.22483825683594,
				130.49705505371094,
				62.79131317138672
			],
			"min":[
				-65.99092864990234,
				129.87074279785156,
				-85.52063751220703
			],
			"type":"VEC3"
		},
		{
			"bufferView":9,
			"componentType":5126,
			"count":432,
			"type":"VEC3"
		},
		{
			"bufferView":10,
			"componentType":5126,
			"count":432,
			"type":"VEC2"
		},
		{
			"bufferView":11,
			"componentType":5123,
			"count":684,
			"type":"SCALAR"
		}
	],
	"bufferViews":[
		{
			"buffer":0,
			"byteLength":123252,
			"byteOffset":0,
			"target":34962
		},
		{
			"buffer":0,
			"byteLength":123252,
			"byteOffset":123252,
			"target":34962
		},
		{
			"buffer":0,
			"byteLength":82168,
			"byteOffset":246504,
			"target":34962
		},
		{
			"buffer":0,
			"byteLength":33804,
			"byteOffset":328672,
			"target":34963
		},
		{
			"buffer":0,
			"byteLength":165900,
			"byteOffset":362476,
			"target":34962
		},
		{
			"buffer":0,
			"byteLength":165900,
			"byteOffset":528376,
			"target":34962
		},
		{
			"buffer":0,
			"byteLength":110600,
			"byteOffset":694276,
			"target":34962
		},
		{
			"buffer":0,
			"byteLength":47412,
			"byteOffset":804876,
			"target":34963
		},
		{
			"buffer":0,
			"byteLength":5184,
			"byteOffset":852288,
			"target":34962
		},
		{
			"buffer":0,
			"byteLength":5184,
			"byteOffset":857472,
			"target":34962
		},
		{
			"buffer":0,
			"byteLength":3456,
			"byteOffset":862656,
			"target":34962
		},
		{
			"buffer":0,
			"byteLength":1368,
			"byteOffset":866112,
			"target":34963
		}
	],
	"samplers":[
		{
			"magFilter":9728,
			"minFilter":9984
		}
	],
	"buffers":[
		{
			"byteLength":867480,
			"uri":"lowPolyKitchenWhole.bin"
		}
	]
}
